<svg xmlns="http://www.w3.org/2000/svg" version="1.1" viewBox="0 0 500 73.375" width="500" height="73.375">
<title>El Observador</title>
<defs>
<clipPath id="clipPath618">
<path d="m321.49,1023.3,167.24,0,0,24.543-167.24,0,0-24.543z"/>
</clipPath>
</defs>
<g transform="translate(-184.04393,-351.46958)">
<path fill-rule="nonzero" fill="#008177" d="m184.04,424.84,500,0,0-73.375-500,0,0,73.375z"/>
<g transform="matrix(2.9896439,0,0,-2.9896439,-777.09967,3484.168)">
<g clip-path="url(#clipPath618)">
<g transform="translate(330.3582,1033.8584)">
<path fill-rule="evenodd" fill="#FFF" d="m0,0c0.007-1.88,0.007-3.421-0.062-4.243-0.107-0.562-0.204-0.991-0.624-1.061-0.146-0.047-0.38-0.086-0.562-0.062-0.11-0.024-0.149-0.083-0.125-0.125-0.024-0.133,0.073-0.172,0.312-0.187,0.561,0.015,1.789,0.073,1.872,0.062,0.58,0.011,1.887-0.106,4.805-0.125,0.786,0.019,0.942,0.019,1.061,0.499,0.116,0.437,0.271,1.763,0.249,1.935,0.022,0.12,0.022,0.276-0.124,0.25-0.068,0.026-0.107-0.052-0.125-0.25-0.158-0.816-0.392-1.206-0.874-1.435-0.532-0.2-1.389-0.2-1.872-0.188-1.935-0.012-2.228,0.242-2.309,1.56,0.003,0.437,0.023,2.698,0,3.37v1.685c0.023,0.101,0.062,0.159,0.188,0.187,0.303-0.028,2.233-0.067,2.745-0.125,0.775-0.079,0.95-0.41,0.999-0.686,0.107-0.25,0.107-0.446,0.124-0.624-0.017-0.114,0.022-0.192,0.125-0.187,0.131-0.005,0.131,0.209,0.125,0.374,0.006,0.128,0.046,0.85,0.062,1.248,0.081,0.635,0.178,0.967,0.188,1.061-0.01,0.139-0.049,0.178-0.125,0.187-0.06-0.009-0.138-0.106-0.25-0.25-0.2-0.207-0.473-0.246-0.936-0.311-0.453-0.013-2.852-0.013-3.12,0-0.083-0.013-0.102,0.045-0.125,0.187v5.366c0.023,0.147,0.062,0.206,0.125,0.187,0.229,0.019,2.355-0.001,2.683-0.062,1.056-0.095,1.251-0.329,1.373-0.624,0.112-0.251,0.131-0.582,0.125-0.749,0.006-0.126,0.046-0.223,0.187-0.249,0.053,0.026,0.092,0.143,0.125,0.249,0.026,0.225,0.065,1.083,0.062,1.248,0.081,0.576,0.178,0.81,0.188,0.936-0.01,0.108-0.029,0.186-0.063,0.187-0.122-0.001-0.2-0.079-0.312-0.125-0.141-0.012-0.454-0.051-0.811-0.062-0.462-0.028-4.342-0.028-4.493,0-0.083-0.028-1.311,0.03-2.184,0-0.219,0.03-0.317-0.009-0.312-0.125l0.125-0.124c0.202,0.006,0.533-0.013,0.686-0.063,0.647-0.126,0.803-0.438,0.812-1.123,0.069-0.602,0.069-1.148,0.062-4.181v-3.432z"/>
</g>
<g transform="translate(341.7774,1037.2905)">
<path fill-rule="evenodd" fill="#FFF" d="m0,0c-0.028,3.033-0.028,3.579,0,4.181,0.05,0.705,0.206,1.036,0.749,1.123,0.257,0.05,0.53,0.069,0.686,0.063l0.125,0.124c0.011,0.116-0.086,0.155-0.312,0.125-0.574,0.03-1.997-0.029-2.122,0-0.07-0.029-1.299,0.03-2.184,0-0.207,0.03-0.304-0.009-0.312-0.125,0.008-0.079,0.086-0.118,0.188-0.124,0.151,0.006,0.483-0.013,0.624-0.063,0.658-0.126,0.814-0.438,0.873-1.123,0.019-0.602,0.019-1.148,0-4.181v-3.432c0.019-1.881,0.019-3.421-0.062-4.243-0.094-0.563-0.192-0.991-0.562-1.061-0.195-0.047-0.429-0.087-0.624-0.062-0.098-0.025-0.137-0.083-0.125-0.125-0.012-0.133,0.086-0.172,0.312-0.187,0.573,0.015,1.724,0.073,1.872,0.062,1.158,0.011,2.445-0.106,5.242-0.125,1.045,0.019,1.103,0.097,1.248,0.562,0.148,0.549,0.284,1.719,0.312,1.934-0.028,0.214-0.047,0.292-0.125,0.312-0.137-0.02-0.176-0.118-0.187-0.25-0.067-0.394-0.262-0.882-0.499-1.185-0.484-0.574-1.342-0.593-2.371-0.624-1.526,0.031-2.033,0.167-2.372,0.499-0.324,0.331-0.402,1.579-0.374,4.43v3.495z"/>
</g>
<g transform="translate(356.3166,1041.0347)">
<path fill-rule="evenodd" fill="#FFF" d="m0,0c-2.483-2.511-3.848-7.02-0.062-10.795,3.315-3.326,8.044-2.954,11.107,0.125,3.238,3.223,2.879,7.497-0.25,10.607-3.778,3.798-8.563,2.267-10.795,0.063m1.685-0.936c3.029,3.003,6.269,2.796,8.549,0.499,2.201-2.185,2.436-5.976-0.874-9.298-4.012-4-7.293-2.152-8.549-0.935-2.467,2.506-2.329,6.504,0.874,9.734"/>
</g>
<g transform="translate(371.4174,1033.8584)">
<path fill-rule="evenodd" fill="#FFF" d="m0,0c-0.028-1.88-0.028-3.421-0.125-4.243-0.079-0.562-0.176-0.991-0.561-1.061-0.181-0.047-0.415-0.086-0.562-0.062-0.145-0.024-0.184-0.083-0.187-0.125,0.003-0.133,0.1-0.172,0.312-0.187,0.588,0.015,1.816,0.073,1.934,0.062,0.136,0.011,2.125-0.106,2.559-0.125,3.348,0.019,4.986,2.184,4.992,4.244-0.006,2.308-1.936,3.692-3.37,4.118,0.907,0.978,1.824,1.933,1.81,3.557,0.014,0.95-0.688,2.9-3.869,2.87-0.914,0.03-1.674-0.028-2.122,0-0.118-0.028-1.346,0.03-2.246,0-0.192,0.03-0.29-0.009-0.312-0.125l0.187-0.124c0.167,0.006,0.498-0.013,0.624-0.063,0.674-0.126,0.83-0.438,0.874-1.123,0.034-0.602,0.034-1.148,0.062-4.181v-3.432zm1.56,8.237c-0.028,0.1,0.03,0.159,0.187,0.187,0.331,0.089,0.74,0.108,0.936,0.125,1.929-0.017,2.651-1.752,2.621-3.37,0.03-0.8-0.263-1.502-0.686-1.997-0.396-0.441-0.669-0.48-1.748-0.499-0.734,0.019-1.085,0.077-1.185,0.125-0.114,0.011-0.153,0.05-0.125,0.187v5.242zm0-6.178,0.062,0.125c0.319-0.008,1.294-0.008,1.56-0.062,0.455-0.044,0.943-0.103,1.623-0.562,1.484-1.022,1.874-2.719,1.872-3.869,0.002-2.223-1.694-2.789-2.746-2.808-0.352,0.019-1.19,0.058-1.747,0.312-0.574,0.292-0.574,0.565-0.624,1.498-0.028,0.315-0.028,2.733,0,4.243v1.123z"/>
</g>
<g transform="translate(383.6478,1027.9305)">
<path fill-rule="evenodd" fill="#FFF" d="M0,0c1.037-0.008,2.09,0.226,2.933,0.811,1.341,0.955,1.653,2.437,1.622,3.245,0.031,1.551-0.515,2.76-2.808,4.555l-0.561,0.437c-1.826,1.512-2.372,2.175-2.372,3.307,0,1.403,1.053,2.242,2.372,2.247,1.821-0.005,2.347-0.824,2.433-1.061,0.148-0.192,0.265-0.719,0.312-0.936-0.008-0.173,0.012-0.27,0.125-0.25,0.101-0.02,0.14,0.116,0.125,0.437,0.015,1.317,0.093,1.96,0.062,2.059,0.031,0.096-0.008,0.136-0.187,0.125-0.133,0.011-0.289,0.03-0.686,0.125-0.461,0.1-1.026,0.178-1.81,0.187-2.453-0.009-4.013-1.432-3.994-3.494-0.019-1.351,0.449-2.56,2.496-4.244l0.874-0.748c1.7-1.37,2.266-2.15,2.246-3.495,0.02-1.249-0.897-2.594-2.745-2.621-1.33,0.027-2.617,0.573-2.933,1.997-0.035,0.292-0.035,0.565-0.062,0.749,0.027,0.147,0.007,0.206-0.125,0.187-0.082,0.019-0.121-0.079-0.125-0.312-0.035-0.293-0.113-1.073-0.125-2.059,0.012-0.516,0.031-0.593,0.312-0.749,0.792-0.371,1.689-0.507,2.621-0.499"/>
</g>
<g transform="translate(391.5726,1033.8584)">
<path fill-rule="evenodd" fill="#FFF" d="M0,0c0.029-1.88,0.029-3.421-0.062-4.243-0.085-0.562-0.182-0.991-0.562-1.061-0.185-0.047-0.419-0.086-0.624-0.062l-0.125-0.125c-0.002-0.133,0.096-0.172,0.312-0.187,0.583,0.015,1.811,0.073,1.935,0.062,0.539,0.011,1.846-0.106,4.804-0.125,0.747,0.019,0.903,0.019,1.061,0.499,0.076,0.437,0.232,1.763,0.25,1.935-0.018,0.12-0.018,0.276-0.125,0.25-0.108,0.026-0.147-0.052-0.187-0.25-0.135-0.816-0.369-1.206-0.874-1.435-0.509-0.2-1.367-0.2-1.872-0.188-1.913-0.012-2.206,0.242-2.246,1.56-0.038,0.437-0.018,2.698,0,3.37v1.685c-0.018,0.101,0.021,0.159,0.125,0.187,0.325-0.028,2.255-0.067,2.808-0.125,0.734-0.079,0.91-0.41,0.998-0.686,0.068-0.25,0.068-0.446,0.062-0.624,0.006-0.114,0.045-0.192,0.125-0.187,0.154-0.005,0.154,0.209,0.125,0.374,0.029,0.128,0.068,0.85,0.125,1.248,0.04,0.635,0.138,0.967,0.125,1.061,0.013,0.139-0.026,0.178-0.063,0.187-0.1-0.009-0.178-0.106-0.312-0.25-0.178-0.207-0.451-0.246-0.936-0.311-0.431-0.013-2.83-0.013-3.057,0-0.124-0.013-0.143,0.045-0.125,0.187v5.366c-0.018,0.147,0.021,0.206,0.125,0.187,0.188,0.019,2.314-0.001,2.62-0.062,1.078-0.095,1.273-0.329,1.436-0.624,0.071-0.251,0.091-0.582,0.062-0.749,0.029-0.126,0.068-0.223,0.187-0.249,0.076,0.026,0.115,0.143,0.125,0.249,0.048,0.225,0.087,1.083,0.125,1.248,0.04,0.576,0.138,0.81,0.125,0.936,0.013,0.108-0.007,0.186-0.063,0.187-0.1-0.001-0.178-0.079-0.249-0.125-0.182-0.012-0.494-0.051-0.874-0.062-0.439-0.028-4.319-0.028-4.43,0-0.124-0.028-1.352,0.03-2.247,0-0.197,0.03-0.294-0.009-0.312-0.125,0.018-0.079,0.096-0.118,0.187-0.124,0.162,0.006,0.494-0.013,0.624-0.063,0.669-0.126,0.825-0.438,0.874-1.123,0.029-0.602,0.029-1.148,0-4.181v-3.432z"/>
</g>
<g transform="translate(401.36951,1033.8584)">
<path fill-rule="evenodd" fill="#FFF" d="m0,0c-0.021-1.88-0.021-3.421-0.125-4.243-0.072-0.562-0.169-0.991-0.561-1.061-0.173-0.047-0.407-0.086-0.562-0.062-0.138-0.024-0.177-0.083-0.187-0.125,0.01-0.133,0.108-0.172,0.312-0.187,0.595,0.015,1.824,0.073,1.872,0.062,0.068,0.011,1.297-0.047,2.371-0.062,0.213,0.015,0.31,0.073,0.312,0.187-0.002,0.042-0.041,0.101-0.187,0.125-0.146-0.024-0.575,0.015-0.874,0.062-0.559,0.07-0.676,0.499-0.749,1.061-0.083,0.822-0.083,2.363-0.062,4.243v0.437c-0.021,0.12,0.018,0.178,0.125,0.187l2.371-0.062c0.135,0.014,0.193-0.024,0.249-0.125,0.412-0.484,1.329-1.791,2.122-2.871,1.137-1.455,1.82-2.41,2.683-2.87,0.482-0.262,0.97-0.359,2.06-0.374h1.372c0.365,0.015,0.482,0.054,0.5,0.187-0.018,0.042-0.096,0.101-0.188,0.125-0.123-0.024-0.396-0.024-0.749,0.062-0.505,0.05-1.343,0.265-2.371,1.373-1.156,1.212-2.482,2.947-4.056,4.992,1.73,1.622,2.335,3.064,2.309,4.493,0.026,1.36-0.832,2.315-1.31,2.683-1.043,0.724-2.35,0.841-3.557,0.811-0.626,0.03-2.108-0.028-2.309,0-0.11-0.028-1.339,0.03-2.246,0-0.185,0.03-0.282-0.009-0.312-0.125l0.187-0.124c0.174,0.006,0.506-0.013,0.686-0.063,0.619-0.126,0.775-0.438,0.812-1.123,0.041-0.602,0.041-1.148,0.062-4.181v-3.432zm1.56,8.112c-0.021,0.108,0.037,0.186,0.125,0.25,0.205,0.034,0.731,0.092,1.31,0.062,2.093,0.03,3.38-1.432,3.37-3.869,0.01-1.483-0.497-2.536-1.186-2.995-0.442-0.321-0.988-0.379-1.435-0.374-0.879-0.005-1.776,0.131-2.059,0.312-0.107,0.053-0.146,0.131-0.125,0.249v6.365z"/>
</g>
<g transform="translate(413.9119,1040.5354)">
<path fill-rule="evenodd" fill="#FFF" d="m0,0c-0.298,0.783-0.532,1.387-0.562,1.622,0.03,0.155,0.069,0.311,0.312,0.437,0.147,0.05,0.498,0.069,0.687,0.063,0.161,0.006,0.22,0.045,0.249,0.124-0.029,0.116-0.204,0.155-0.561,0.125-0.735,0.03-1.613-0.028-1.81,0-0.232-0.028-1.343,0.03-2.309,0-0.282,0.03-0.477,0.011-0.499-0.125,0.022-0.059,0.061-0.118,0.187-0.124,0.108,0.006,0.439,0.006,0.749-0.063,0.665-0.204,0.958-0.418,1.373-1.497l4.805-11.981c0.357-0.921,0.454-1.194,0.686-1.186,0.197-0.008,0.275,0.304,0.811,1.498,0.458,0.931,1.336,3.037,2.496,5.865,1.024,2.417,1.999,4.757,2.184,5.304,0.556,1.325,0.848,1.657,1.123,1.81,0.349,0.256,0.778,0.256,0.937,0.25,0.134,0.006,0.212,0.045,0.187,0.124,0.025,0.116-0.092,0.155-0.312,0.125-0.56,0.03-1.399-0.028-1.498,0-0.252-0.028-1.149,0.03-1.934,0-0.307,0.03-0.424-0.009-0.437-0.125,0.013-0.098,0.111-0.118,0.249-0.124,0.193,0.006,0.486,0.006,0.749-0.063,0.166-0.106,0.224-0.301,0.25-0.437-0.026-0.196-0.104-0.469-0.187-0.748-0.443-1.417-3.056-8.223-4.181-10.858l-3.744,9.984z"/>
</g>
<g transform="translate(423.39661,1030.3643)">
<path fill-rule="evenodd" fill="#FFF" d="m0,0c-0.35-0.999-0.74-1.74-1.622-1.872-0.171-0.005-0.444-0.024-0.562,0-0.116-0.024-0.194-0.063-0.187-0.125-0.007-0.133,0.11-0.172,0.374-0.187,0.906,0.015,1.979,0.073,2.184,0.062,0.224,0.011,1.062-0.047,1.56-0.062,0.146,0.015,0.263,0.054,0.25,0.187,0.013,0.062-0.046,0.101-0.187,0.125h-0.188c-0.334-0.024-0.743,0.151-0.748,0.562,0.005,0.33,0.102,0.798,0.249,1.31l1.186,3.432c0.052,0.093,0.11,0.151,0.187,0.125h4.243l0.125-0.063,1.81-4.804c0.141-0.333,0.024-0.508-0.063-0.562-0.108-0.005-0.167-0.044-0.187-0.125,0.02-0.114,0.235-0.114,0.624-0.125,1.327-0.047,2.75-0.047,3.058-0.062,0.199,0.015,0.375,0.054,0.374,0.187,0.001,0.081-0.077,0.101-0.187,0.125-0.202-0.024-0.495-0.005-0.811,0.062-0.386,0.148-0.951,0.46-1.623,2.184-1.22,2.975-4.281,11.028-4.555,11.794-0.252,0.58-0.33,0.677-0.437,0.686-0.127-0.009-0.205-0.126-0.437-0.749l-4.43-12.105zm2.746,4.305c-0.073-0.02-0.112,0.019-0.063,0.125l1.685,5.242c0.118,0.307,0.216,0.307,0.312,0l1.872-5.242c0.001-0.086,0.001-0.145-0.125-0.125h-3.681z"/>
</g>
<g transform="translate(436.5629,1033.8584)">
<path fill-rule="evenodd" fill="#FFF" d="m0,0c-0.008-1.88-0.008-3.421-0.125-4.243-0.058-0.562-0.156-0.991-0.561-1.061-0.16-0.047-0.394-0.086-0.562-0.062-0.125-0.024-0.164-0.083-0.187-0.125,0.023-0.133,0.121-0.172,0.312-0.187,0.608,0.015,1.836,0.073,1.934,0.062,0.195,0.011,2.652-0.223,4.306-0.249,3.338,0.026,5.093,1.391,5.928,2.246,1.095,1.173,2.109,3.065,2.122,5.491-0.013,2.351-0.929,3.969-1.935,4.992-2.29,2.39-5.858,2.214-7.8,2.184-1.159,0.03-2.387-0.028-2.621,0-0.098-0.028-1.326,0.03-2.184,0-0.234,0.03-0.331-0.009-0.312-0.125l0.125-0.124c0.187,0.006,0.519-0.013,0.687-0.063,0.631-0.126,0.787-0.438,0.811-1.123,0.054-0.602,0.054-1.148,0.062-4.181v-3.432zm1.622,3.744c0.008,1.493,0.008,3.482,0,4.119,0.028,0.24,0.086,0.338,0.25,0.436,0.168,0.058,0.889,0.116,1.248,0.125,2.351-0.009,4.574-0.282,6.427-2.184,0.78-0.867,1.852-2.466,1.872-4.929-0.02-1.807-0.566-3.679-1.56-4.681-1.17-1.143-2.847-1.806-4.68-1.809-2.281,0.003-3.042,0.413-3.307,0.811-0.144,0.187-0.184,0.967-0.187,1.435-0.035,0.39-0.055,2.183-0.063,4.244v2.433z"/>
</g>
<g transform="translate(453.4111,1041.0347)">
<path fill-rule="evenodd" fill="#FFF" d="m0,0c-2.458-2.511-3.823-7.02-0.062-10.795,3.339-3.326,8.069-2.954,11.169,0.125,3.201,3.223,2.842,7.497-0.249,10.607-3.816,3.798-8.601,2.267-10.858,0.063m1.747-0.936c2.992,3.003,6.232,2.796,8.549,0.499,2.164-2.185,2.399-5.976-0.936-9.298-3.987-4-7.268-2.152-8.487-0.935-2.504,2.506-2.366,6.504,0.874,9.734"/>
</g>
<g transform="translate(468.5117,1033.8584)">
<path fill-rule="evenodd" fill="#FFF" d="m0,0c-0.029-1.88-0.029-3.421-0.125-4.243-0.08-0.562-0.177-0.991-0.561-1.061-0.182-0.047-0.416-0.086-0.562-0.062-0.146-0.024-0.186-0.083-0.187-0.125,0.001-0.133,0.099-0.172,0.312-0.187,0.587,0.015,1.815,0.073,1.81,0.062,0.122,0.011,1.35-0.047,2.433-0.062,0.204,0.015,0.302,0.073,0.312,0.187-0.01,0.042-0.049,0.101-0.187,0.125-0.155-0.024-0.584,0.015-0.874,0.062-0.568,0.07-0.685,0.499-0.749,1.061-0.091,0.822-0.091,2.363-0.062,4.243v0.437c-0.029,0.12,0.009,0.178,0.125,0.187l2.371-0.062c0.126,0.014,0.185-0.024,0.25-0.125,0.403-0.484,1.319-1.791,2.121-2.871,1.129-1.455,1.811-2.41,2.621-2.87,0.536-0.262,1.023-0.359,2.122-0.374h1.372c0.356,0.015,0.474,0.054,0.5,0.187l-0.188,0.125c-0.131-0.024-0.404-0.024-0.748,0.062-0.514,0.05-1.353,0.265-2.434,1.373-1.102,1.212-2.428,2.947-4.056,4.992,1.784,1.622,2.388,3.064,2.371,4.493,0.017,1.36-0.841,2.315-1.31,2.683-1.052,0.724-2.358,0.841-3.557,0.811-0.634,0.03-2.116-0.028-2.309,0-0.119-0.028-1.347,0.03-2.246,0-0.194,0.03-0.291-0.009-0.312-0.125l0.187-0.124c0.166,0.006,0.497-0.013,0.624-0.063,0.672-0.126,0.829-0.438,0.874-1.123,0.033-0.602,0.033-1.148,0.062-4.181v-3.432zm1.56,8.112c-0.029,0.108,0.029,0.186,0.125,0.25,0.196,0.034,0.723,0.092,1.31,0.062,2.084,0.03,3.371-1.432,3.37-3.869,0.001-1.483-0.506-2.536-1.186-2.995-0.451-0.321-0.997-0.379-1.435-0.374-0.888-0.005-1.785,0.131-2.059,0.312-0.116,0.053-0.154,0.131-0.125,0.249v6.365z"/>
</g>
</g>
</g>
</g>
</svg>
