<?xml version="1.0" encoding="UTF-8" standalone="no"?>
<!-- Created with Inkscape (http://www.inkscape.org/) -->

<svg
   xmlns:dc="http://purl.org/dc/elements/1.1/"
   xmlns:cc="http://creativecommons.org/ns#"
   xmlns:rdf="http://www.w3.org/1999/02/22-rdf-syntax-ns#"
   xmlns:svg="http://www.w3.org/2000/svg"
   xmlns="http://www.w3.org/2000/svg"
   xmlns:sodipodi="http://sodipodi.sourceforge.net/DTD/sodipodi-0.dtd"
   xmlns:inkscape="http://www.inkscape.org/namespaces/inkscape"
   width="201.86328mm"
   height="21.284328mm"
   viewBox="0 0 715.26359 75.416912"
   id="svg2"
   version="1.1"
   inkscape:version="0.91 r13725"
   sodipodi:docname="logo.svg">
  <defs
     id="defs4" />
  <sodipodi:namedview
     id="base"
     pagecolor="#ffffff"
     bordercolor="#666666"
     borderopacity="1.0"
     inkscape:pageopacity="0.0"
     inkscape:pageshadow="2"
     inkscape:zoom="2"
     inkscape:cx="585.55114"
     inkscape:cy="-10.958883"
     inkscape:document-units="px"
     inkscape:current-layer="layer1"
     showgrid="false"
     fit-margin-top="0"
     fit-margin-left="0"
     fit-margin-right="0"
     fit-margin-bottom="0"
     inkscape:window-width="1102"
     inkscape:window-height="683"
     inkscape:window-x="655"
     inkscape:window-y="191"
     inkscape:window-maximized="0" />
  <metadata
     id="metadata7">
    <rdf:RDF>
      <cc:Work
         rdf:about="">
        <dc:format>image/svg+xml</dc:format>
        <dc:type
           rdf:resource="http://purl.org/dc/dcmitype/StillImage" />
        <dc:title></dc:title>
      </cc:Work>
    </rdf:RDF>
  </metadata>
  <g
     inkscape:label="Calque 1"
     inkscape:groupmode="layer"
     id="layer1"
     transform="translate(-16.229631,-902.62255)">
    <path
       style="fill:#006aa9;fill-opacity:1"
       d="m 448.58067,977.5734 c -0.57284,-0.11664 -1.62739,-0.37751 -2.34344,-0.58164 -0.71603,-0.20413 -2.12407,-0.46447 -3.12896,-0.57865 -1.00492,-0.11487 -2.64533,-0.51271 -3.64534,-0.88562 -4.17118,-1.55601 -6.24469,-2.47487 -6.24469,-2.76719 0,-0.17143 -0.35152,-0.31071 -0.78114,-0.31071 -0.42962,0 -1.21113,-0.32555 -1.73663,-0.72339 -0.52554,-0.39765 -2.09043,-1.4671 -3.47755,-2.37659 -10.79527,-7.07676 -17.78801,-19.8063 -16.7268,-30.44981 0.78614,-7.88429 2.00567,-11.44679 5.74163,-16.77243 1.17637,-1.67689 2.46075,-3.54837 2.8542,-4.15882 0.83217,-1.2909 11.82178,-9.99593 12.61936,-9.99593 0.29595,0 1.51773,-0.51661 2.715,-1.1481 5.26066,-2.77443 8.27986,-3.37516 18.45063,-3.67244 4.28379,-0.12725 6.37931,-0.0424 6.37931,0.25045 0,0.24035 0.79686,0.43689 1.77079,0.43689 1.71127,0 8.61625,2.37111 12.16973,4.17897 2.34276,1.19191 3.9919,0.79214 5.33187,-1.29231 0.98471,-1.53197 2.62958,-2.1981 3.30058,-1.33632 0.42995,0.55213 0.58951,23.85131 0.16702,24.38506 -0.43577,0.55089 -1.97488,0.65782 -3.81752,0.26563 -0.92597,-0.19724 -1.2328,-0.73045 -1.72165,-2.9911 -0.60517,-2.79865 -2.43251,-7.39083 -3.2246,-8.10343 -0.24008,-0.21563 -0.4365,-0.66719 -0.4365,-1.00282 0,-0.99026 -4.66887,-6.17063 -6.71008,-7.44526 -3.87365,-2.41866 -5.86086,-2.94038 -11.10523,-2.916 -5.91671,0.0265 -8.3248,0.71085 -11.73194,3.3301 -3.6298,2.79016 -6.21663,7.12678 -7.6156,12.76648 -3.68489,14.855 -1.67099,35.32248 4.20202,42.70659 2.0083,2.5247 5.61625,4.99903 8.48334,5.81715 3.95318,1.12829 11.28159,0.79992 15.10637,-0.67655 3.62313,-1.39889 5.66869,-2.7451 8.32778,-5.48047 2.35206,-2.41972 4.88755,-7.49369 5.47428,-10.95474 0.65259,-3.84988 0.95587,-4.20035 3.50921,-4.05366 l 2.21468,0.12725 -0.0278,2.89691 c -0.0159,1.59347 -0.34407,3.82531 -0.73102,4.95997 -0.85169,2.49625 -3.19717,7.35566 -3.68882,7.64232 -0.19503,0.11312 -0.73599,0.76475 -1.20219,1.44678 -0.46618,0.68186 -1.61201,1.91231 -2.54624,2.73414 -1.87074,1.64578 -8.73086,5.32529 -9.9283,5.32529 -0.41609,0 -1.63301,0.29073 -2.70424,0.64579 -1.94756,0.64581 -11.46206,1.17867 -13.5419,0.75821 z m 135.39762,-0.38882 c -10.37684,-2.57472 -14.95795,-4.71219 -21.21929,-9.90121 -7.49376,-6.21004 -11.63821,-13.04856 -13.40152,-22.11256 -1.71406,-8.81092 1.50292,-19.20363 8.39284,-27.11406 2.89489,-3.32357 10.02885,-8.89434 12.50349,-9.76372 0.81767,-0.28736 1.48664,-0.66276 1.48664,-0.83472 0,-0.17144 0.25672,-0.31248 0.57052,-0.31248 0.31384,0 1.19259,-0.33863 1.95285,-0.75254 5.19178,-2.82711 18.63572,-4.38382 24.65879,-2.85539 1.34532,0.34164 2.58509,0.51042 2.75502,0.37557 0.17003,-0.13432 1.29545,0.14846 2.50116,0.62954 1.20573,0.48108 3.3126,1.31016 4.68205,1.84214 4.43833,1.72444 12.19006,6.83905 15.46481,10.20326 4.47734,4.5996 8.3647,11.75925 9.36379,17.24519 2.3332,12.81262 -2.20802,24.3559 -13.21153,33.58179 -4.8251,4.04571 -12.96453,7.94614 -19.57492,9.38019 -4.42656,0.96039 -13.75749,1.17495 -16.9247,0.389 z m 14.32602,-5.08829 c 9.02257,-3.38647 12.68087,-12.49837 12.63544,-31.47188 -0.0468,-19.5967 -3.77581,-29.17519 -12.55831,-32.25856 -2.91393,-1.02296 -10.76781,-1.15003 -12.35077,-0.19989 -0.55598,0.33386 -1.40428,0.61276 -1.88511,0.61999 -1.38159,0.023 -5.29493,3.27903 -6.90356,5.74823 -3.10909,4.77175 -4.94935,14.51036 -4.96915,26.29701 -0.0106,6.41929 1.0732,15.70245 2.24863,19.25665 2.40993,7.28743 7.02991,11.72143 13.36252,12.82428 2.97927,0.5189 7.88827,0.13431 10.42031,-0.81583 z m -577.659061,3.70107 c -0.357583,-0.0919 -0.822326,-0.36973 -1.032758,-0.61999 -0.618835,-0.73541 -0.453673,-3.00384 0.252414,-3.46672 0.358018,-0.23453 2.779011,-0.41285 5.37997,-0.39642 2.60097,0.0177 5.002974,-0.10428 5.337789,-0.26811 0.743655,-0.36479 0.87097,-60.4516 0.130044,-61.38036 -0.338656,-0.42471 -1.768021,-0.59243 -5.329815,-0.62566 -2.676884,-0.0247 -5.159983,-0.19334 -5.517999,-0.37432 -0.723229,-0.36514 -0.867736,-2.67547 -0.218179,-3.48758 0.327027,-0.40879 5.23405,-0.49786 22.775285,-0.41338 l 22.358465,0.10781 0.15765,1.9404 c 0.15712,1.93476 0.151994,1.94129 -1.734276,2.2223 -1.040509,0.15554 -3.619627,0.19354 -5.731362,0.0849 -2.316574,-0.11841 -4.055727,-0.0247 -4.384655,0.23718 -0.636539,0.50512 -0.789647,61.82273 -0.154468,61.89644 3.504642,0.40613 7.789845,0.23346 11.561096,-0.46535 5.445436,-1.00936 6.222305,-1.30009 10.256824,-3.83981 5.086533,-3.20161 7.817293,-8.5391 8.049562,-15.73321 0.09703,-3.00826 0.543751,-3.56604 2.855642,-3.56604 2.848856,0 2.6879,-1.42645 2.389337,21.17638 l -0.09138,6.91716 -33.329441,0.10959 c -18.331177,0.0601 -33.622003,0.0353 -33.979588,-0.0565 z m 73.773557,-0.0442 c -1.388912,-0.19106 -1.530497,-0.36991 -1.673213,-2.1152 l -0.155883,-1.90647 2.666145,-0.20361 c 5.197645,-0.39624 8.062235,-2.93066 11.396605,-10.08254 2.88501,-6.18812 5.25623,-11.11575 6.24077,-12.96867 0.54353,-1.02279 1.34473,-2.6037 1.78044,-3.5132 1.00578,-2.09875 5.4374,-11.21366 8.84181,-18.1858 1.44303,-2.95523 2.93708,-5.95924 3.32015,-6.67555 0.38304,-0.71632 0.69643,-1.42523 0.69643,-1.57563 0,-0.15022 0.5457,-1.23787 1.21267,-2.41724 0.66694,-1.17937 1.64126,-3.16732 2.16516,-4.41757 0.52389,-1.25024 1.48852,-3.24968 2.14364,-4.44318 l 1.1911,-2.16981 4.13099,0 c 4.45711,0 4.6689,0.0901 5.82577,2.47998 0.38514,0.7955 1.21628,2.37641 1.84697,3.51302 0.63068,1.13678 2.00384,3.83362 3.05147,5.993 1.04762,2.15974 2.11813,4.29863 2.37889,4.75319 0.26076,0.45458 1.20685,2.31456 2.1024,4.1332 0.89555,1.81845 1.93888,3.7714 2.31848,4.33979 0.37962,0.56822 2.33824,4.2882 4.35249,8.26621 8.622,17.02851 14.53259,28.40867 15.48918,29.82239 0.40825,0.60339 0.74224,1.3874 0.74224,1.74211 0,1.09047 1.87532,1.52242 6.10437,1.40578 l 4.05047,-0.11135 0,2.06659 0,2.06678 -2.86418,0.20642 c -1.57532,0.11312 -11.70751,0.15554 -22.51602,0.0937 l -19.65181,-0.11311 -0.32371,-1.02385 c -0.17802,-0.56291 -0.18371,-1.46622 -0.0124,-2.00739 0.29132,-0.92116 0.6236,-1.00227 5.22589,-1.27604 2.94378,-0.17497 5.00572,-0.48497 5.14149,-0.77288 0.30991,-0.65675 -5.78859,-12.95382 -7.05363,-14.22316 -0.38938,-0.39058 -3.9766,-0.51659 -14.71437,-0.51659 -16.47715,0 -15.52222,-0.2379 -17.40436,4.33979 -0.65422,1.59135 -1.63633,3.67986 -2.18247,4.64096 -0.72414,1.27463 -0.9008,2.20534 -0.65246,3.43791 0.47114,2.33842 1.90698,2.99942 6.61363,3.04483 l 3.7373,0.0353 0.15889,1.96727 c 0.10781,1.33632 -0.0592,2.03125 -0.52077,2.16628 -0.95017,0.27766 -23.347311,0.45916 -25.200407,0.20413 z M 141.6609,950.84498 c 0.27993,-0.39695 -0.26931,-1.89799 -1.56599,-4.27971 -1.09844,-2.01746 -3.59423,-7.01614 -5.54625,-11.10797 -1.95202,-4.09167 -3.77215,-7.6722 -4.04473,-7.95622 -0.89661,-0.93476 -1.83958,-0.54151 -2.477,1.03321 -0.78718,1.94447 -6.05762,12.69703 -7.04003,14.36261 -1.62656,2.75781 -3.34928,6.60345 -3.34928,7.47637 0,0.51041 0.29292,1.02366 0.65094,1.14066 0.35804,0.11842 5.66624,0.15199 11.79605,0.0777 9.17123,-0.11135 11.22147,-0.24337 11.57629,-0.74654 z m 175.40136,24.72457 c -0.70414,-0.55956 -0.61233,-3.27496 0.13061,-3.86456 0.3437,-0.27288 1.57399,-0.50388 2.73397,-0.51341 2.51431,-0.0212 4.89059,-0.97206 6.66574,-2.66911 1.34275,-1.28364 1.89987,-2.26595 5.62575,-9.91958 1.21729,-2.50049 2.41211,-4.72315 2.65513,-4.93912 0.24301,-0.21597 0.44184,-0.72992 0.44184,-1.14226 0,-0.41215 0.22846,-1.07244 0.50769,-1.46727 0.74991,-1.06008 2.75466,-5.05736 5.23161,-10.43055 1.20503,-2.61412 2.63294,-5.53331 3.17307,-6.48698 0.54014,-0.95368 0.98208,-1.86299 0.98208,-2.02065 0,-0.1573 1.43712,-3.19047 3.19361,-6.73919 3.93903,-7.95815 3.74958,-7.58152 5.32335,-10.58536 0.7146,-1.36388 2.05099,-4.10721 2.96976,-6.0964 l 1.67052,-3.6164 4.2936,0 c 4.51382,0 5.01116,0.17956 5.72717,2.06642 0.21565,0.56839 0.82159,1.77745 1.34655,2.68659 0.52499,0.90949 2.46635,4.62912 4.31414,8.26638 1.8478,3.63709 3.99467,7.82189 4.77072,9.2996 2.10234,4.00258 2.08607,3.97077 4.65443,9.09281 1.31085,2.6143 2.60494,5.12521 2.87577,5.57979 0.27086,0.45456 0.95269,1.77992 1.51512,2.9448 0.56245,1.16542 1.47108,2.93226 2.01907,3.92659 0.54805,0.99451 1.53247,2.92412 2.18756,4.28819 0.65511,1.36388 1.49474,3.0376 1.86584,3.7198 0.37102,0.68186 1.63555,3.0998 2.81003,5.37301 1.17441,2.2732 2.47912,4.74382 2.89931,5.49037 0.42021,0.74653 0.76402,1.6258 0.76402,1.95383 0,1.19528 2.19239,1.79954 6.24914,1.72266 l 3.90567,-0.0743 0.15765,2.17441 0.15765,2.1744 -22.55031,-0.1078 -22.55026,-0.10781 -0.16384,-1.57881 c -0.2527,-2.4358 0.50654,-2.85413 4.81761,-2.6546 6.01814,0.27872 6.37453,-0.0177 4.42584,-3.67049 -1.35284,-2.53618 -1.70681,-3.22546 -2.83891,-5.52889 -1.60808,-3.27142 -2.37386,-4.73746 -2.80682,-5.37284 -0.35691,-0.5242 -2.66362,-0.63714 -14.89685,-0.7301 -16.01537,-0.12195 -15.96847,-0.12902 -16.69327,2.52947 -0.19503,0.71508 -0.78439,2.04434 -1.30971,2.95348 -2.94763,5.10224 -3.11395,7.73758 -0.58861,9.32557 1.18358,0.74459 1.88692,0.85523 4.33642,0.68221 1.60805,-0.11312 3.22862,-0.0565 3.60126,0.12548 0.74494,0.36532 0.80759,3.22441 0.0833,3.79916 -0.62632,0.49716 -26.06643,0.63113 -26.68397,0.14139 z m 48.87984,-24.89812 c 0.0892,-0.49805 -1.02384,-3.18624 -2.4736,-5.97411 -1.44975,-2.78785 -2.6359,-5.23532 -2.6359,-5.43875 0,-0.20343 -0.33473,-0.95579 -0.74384,-1.67229 -0.40908,-0.71632 -1.75656,-3.38913 -2.99437,-5.93946 -1.2378,-2.5505 -2.51606,-4.6429 -2.84053,-4.64997 -0.53614,-0.0177 -3.31572,4.09201 -3.31572,4.89511 0,0.18611 -0.32771,0.87857 -0.72822,1.5385 -0.40052,0.66012 -2.5225,4.79561 -4.71547,9.1902 -3.22469,6.46171 -3.86655,8.10519 -3.35608,8.59352 0.52589,0.50282 2.55088,0.58342 12.13633,0.48303 11.38756,-0.11842 11.50676,-0.12902 11.6674,-1.02578 z m -134.54915,24.10068 c -0.17091,-0.541 -0.23408,-1.5173 -0.14015,-2.16982 0.16666,-1.15816 0.24687,-1.18732 3.32386,-1.20976 3.75048,-0.0283 5.43605,-0.83368 6.83876,-3.27037 0.87939,-1.52772 0.94421,-3.3999 0.94421,-27.27895 l 0,-25.63831 -1.16689,-1.73256 c -1.46596,-2.17688 -4.13247,-3.81453 -6.7263,-4.13089 -1.1007,-0.13255 -2.27074,-0.4118 -2.60013,-0.61664 -0.67169,-0.41764 -0.80986,-2.84018 -0.2062,-3.61553 0.2957,-0.37963 4.36608,-0.50052 16.48206,-0.48956 l 16.08939,0.0177 1.72241,1.5583 c 0.94734,0.85718 2.56099,2.58461 3.58591,3.83856 4.10962,5.0289 5.65674,6.84577 6.26923,7.36273 0.62831,0.53039 4.05714,4.43948 5.08678,5.7993 0.28642,0.37822 1.1351,1.3395 1.88603,2.13605 0.7509,0.79638 3.09434,3.46884 5.20759,5.93875 2.11329,2.46992 4.54535,5.27828 5.40459,6.24097 0.85927,0.96287 2.01139,2.28982 2.56028,2.94923 3.91231,4.69893 4.7213,5.53843 5.3377,5.53843 1.1039,0 1.01148,-32.20641 -0.0974,-33.90822 -1.1127,-1.70782 -4.54732,-3.00702 -8.06103,-3.04908 l -2.8642,-0.0336 -0.15746,-2.16981 -0.15748,-2.17 11.74432,-0.0371 c 6.45938,-0.0212 12.44735,-0.0371 13.30659,-0.0371 0.85925,0 1.79663,0.0177 2.08306,0.0371 0.28642,0.0212 0.52077,0.94766 0.52077,2.06005 0,2.16397 -0.45876,2.55916 -2.63682,2.27108 -1.78447,-0.23595 -5.73483,1.50139 -7.12746,3.13427 l -1.17171,1.37396 0,31.14422 0,31.14386 -4.12349,0 c -2.26792,0 -4.49844,-0.11487 -4.95672,-0.25362 -0.45828,-0.13962 -2.60982,-2.32498 -4.78113,-4.85622 -2.17135,-2.53159 -4.62694,-5.34686 -5.45691,-6.25616 -2.50667,-2.74616 -6.19899,-7.18953 -6.19899,-7.46012 0,-0.13961 -0.79286,-1.02896 -1.76194,-1.97646 -0.96903,-0.94766 -3.5774,-3.86172 -5.79636,-6.47584 -2.21893,-2.61432 -4.1796,-4.84616 -4.35699,-4.95981 -0.17741,-0.1131 -1.72863,-1.88066 -3.44713,-3.9264 -5.89247,-7.01455 -13.43208,-15.70617 -13.8038,-15.91278 -0.20447,-0.1131 -0.74854,-0.76456 -1.20903,-1.44677 -0.46049,-0.68168 -1.31168,-1.70464 -1.8915,-2.27285 -0.89396,-0.87627 -1.13277,-0.93936 -1.57084,-0.41356 -0.32598,0.39112 -0.51957,9.16067 -0.5246,23.76134 -0.007,20.99894 0.0753,23.30112 0.89239,24.86897 1.18757,2.27867 3.14743,3.15654 7.37143,3.30164 3.59817,0.12371 4.2483,0.48002 3.98669,2.18677 -0.0892,0.58235 -0.18896,1.29143 -0.22162,1.57544 -0.0458,0.39873 -3.1442,0.51643 -13.58923,0.51643 l -13.52984,0 -0.31095,-0.98319 z m 263.27718,-0.0442 c -0.57373,-1.19758 0.12371,-3.08743 1.15661,-3.13462 0.36514,-0.0177 2.35032,-0.0177 4.41157,0.0283 6.5838,0.099 5.88634,3.82072 5.88634,-31.4081 0,-35.37761 0.85036,-31.41179 -6.73566,-31.41179 -3.8204,0 -4.73345,-0.12018 -4.78615,-0.61999 -0.0361,-0.34094 -0.10799,-0.85241 -0.16065,-1.13661 -0.0525,-0.28419 0.0619,-0.88864 0.25466,-1.34338 0.34087,-0.80434 0.93253,-0.83226 22.05565,-1.03321 l 21.70537,-0.20678 0.27805,0.88015 c 0.15287,0.48409 0.20113,1.41408 0.1071,2.06642 l -0.1709,1.18661 -5.05377,0.20679 c -2.77962,0.11312 -5.27994,0.39253 -5.55633,0.62 -0.31066,0.25556 -0.56051,11.95543 -0.65443,30.64422 -0.12248,24.39001 -0.0203,30.35668 0.52754,30.88071 0.51374,0.49132 1.9052,0.67849 5.70816,0.76757 l 5.02883,0.11841 0,1.85999 0,1.86016 -21.75248,0.10782 -21.7524,0.10781 -0.49717,-1.03781 z m 147.20779,0.75997 c -0.59412,-0.47153 -0.39708,-3.3817 0.25043,-3.69947 0.33335,-0.1626 1.69168,-0.3275 3.01858,-0.36461 1.32689,-0.0371 3.13639,-0.40686 4.02105,-0.8213 3.35823,-1.57474 3.27453,-0.82573 3.29798,-29.50975 0.0124,-15.04976 -0.18238,-26.40411 -0.46274,-26.98929 -1.22553,-2.55828 -4.73107,-4.70035 -8.13752,-4.97234 -1.52393,-0.12195 -1.56227,-0.17939 -1.56227,-2.36052 l 0,-2.2359 16.40392,0.0743 c 14.87528,0.0689 16.4664,0.14138 17.07399,0.78948 1.74135,1.85716 11.53965,13.20816 13.3759,15.49532 1.13767,1.41708 2.5437,3.00967 3.12457,3.539 0.58087,0.52933 2.93088,3.16802 5.22221,5.86398 2.29136,2.69579 6.23825,7.33144 8.77087,10.30135 2.53262,2.96973 4.93461,5.39969 5.33778,5.39969 0.61795,0 0.73272,-2.57949 0.7311,-16.42902 0,-15.34526 -0.0666,-16.51332 -0.98006,-17.70241 -1.22256,-1.59117 -4.12104,-2.70905 -7.52493,-2.90151 -1.43876,-0.0813 -2.84424,-0.32962 -3.1232,-0.5509 -0.55341,-0.43919 -0.61425,-2.65707 -0.0912,-3.32868 0.20662,-0.26545 5.2542,-0.41887 13.77942,-0.41887 14.71667,0 14.08551,-0.11134 14.08551,2.46303 0,1.22815 -1.17196,2.32357 -2.03351,1.90117 -1.01008,-0.4954 -5.24422,0.70588 -7.18846,2.03937 l -1.97437,1.35452 -0.27787,31.56273 c -0.15288,17.35938 -0.32861,31.60922 -0.39058,31.66595 -0.0619,0.0565 -2.07679,0.10428 -4.47733,0.10428 -4.36007,0 -4.3661,0 -5.72837,-1.4192 -0.75005,-0.7803 -1.36374,-1.54505 -1.36374,-1.69899 0,-0.15376 -0.88585,-1.14296 -1.96855,-2.19756 -1.79444,-1.74776 -5.73071,-6.26588 -6.36357,-7.30422 -0.14334,-0.23524 -1.50558,-1.81598 -3.02752,-3.51319 -1.52185,-1.69721 -3.51374,-3.97608 -4.42644,-5.0639 -3.6575,-4.35994 -10.1443,-11.81775 -12.72555,-14.63106 -1.5037,-1.63872 -2.73399,-3.10211 -2.73399,-3.25198 0,-0.15023 -0.66809,-0.95032 -1.48463,-1.77869 -1.59894,-1.62192 -8.21266,-9.25753 -10.73731,-12.39622 -1.87254,-2.328 -3.28978,-3.59503 -3.67727,-3.2875 -0.15801,0.12724 -0.28736,11.03338 -0.28736,24.2396 0,27.20385 -0.18669,25.93381 4.0299,27.41417 1.6308,0.57262 3.17423,0.78294 5.04044,0.68698 l 2.68977,-0.13786 0,2.06659 0,2.0666 -13.5747,0.11135 c -7.46608,0.0619 -13.73472,-0.0177 -13.93034,-0.17144 z"
       id="path4175"
       inkscape:connector-curvature="0" />
  </g>
</svg>
