<?xml version="1.0" encoding="UTF-8" standalone="no"?>
<!-- Created with Inkscape (http://www.inkscape.org/) -->
<svg xmlns:svg="http://www.w3.org/2000/svg" xmlns="http://www.w3.org/2000/svg" version="1.0" width="390.43845" height="60.000019" id="svg2">
  <defs id="defs4"/>
  <g transform="translate(3.85035e-06, -992.362)" id="layer1">
    <path d="M 167.68532,427.58282 A 29.7995,29.7995 0 1 1 108.08632,427.58282 A 29.7995,29.7995 0 1 1 167.68532,427.58282 z" transform="matrix(1.00673, 0, 0, 1.00673, -108.814, 591.902)" id="path2383" style="opacity: 1; fill: rgb(0, 0, 255); fill-opacity: 1; fill-rule: nonzero; stroke: none; stroke-width: 2; stroke-linejoin: miter; stroke-miterlimit: 4; stroke-dasharray: none; stroke-dashoffset: 0pt; stroke-opacity: 1;"/>
    <path d="M 167.68532,427.58282 A 29.7995,29.7995 0 1 1 108.08632,427.58282 A 29.7995,29.7995 0 1 1 167.68532,427.58282 z" transform="matrix(1.00673, 0, 0, 1.00673, -48.8136, 591.902)" id="path2385" style="opacity: 1; fill: rgb(0, 255, 0); fill-opacity: 1; fill-rule: nonzero; stroke: none; stroke-width: 2; stroke-linejoin: miter; stroke-miterlimit: 4; stroke-dasharray: none; stroke-dashoffset: 0pt; stroke-opacity: 1;"/>
    <path d="M 167.68532,427.58282 A 29.7995,29.7995 0 1 1 108.08632,427.58282 A 29.7995,29.7995 0 1 1 167.68532,427.58282 z" transform="matrix(1.00673, 0, 0, 1.00673, 11.1864, 591.902)" id="path2387" style="opacity: 1; fill: rgb(255, 0, 0); fill-opacity: 1; fill-rule: nonzero; stroke: none; stroke-width: 2; stroke-linejoin: miter; stroke-miterlimit: 4; stroke-dasharray: none; stroke-dashoffset: 0pt; stroke-opacity: 1;"/>
    <path d="M 192.48548,1052.3622 L 192.48548,992.36218 L 197.3903,992.36218 L 197.3903,1052.3622 L 192.48548,1052.3622 M 213.8651,1015.8124 L 209.69937,1015.8124 L 209.69937,1010.7732 L 213.8651,1010.7732 L 213.8651,1003.248 L 220.24808,1000.7956 L 220.24808,1010.7732 L 230.1249,1010.7732 L 230.1249,1015.8124 L 220.24808,1015.8124 L 220.24808,1033.6847 C 220.24806,1036.7083 220.75198,1038.8583 221.75984,1040.1349 C 222.79006,1041.4115 224.43619,1042.0498 226.69825,1042.0498 C 228.33316,1042.0498 230.02409,1041.6355 231.77103,1040.8068 L 232.71168,1046.4171 C 230.06888,1047.089 227.16855,1047.4249 224.01068,1047.4249 C 221.16632,1047.4249 218.7587,1046.3723 216.78783,1044.267 C 214.83934,1042.1394 213.86509,1039.463 213.8651,1036.2379 L 213.8651,1015.8124 M 269.16185,1029.3846 L 243.2268,1029.3846 C 243.22679,1033.5952 244.38021,1036.8314 246.68705,1039.0935 C 248.72511,1041.0644 251.34549,1042.0498 254.54819,1042.0498 C 258.19878,1042.0498 261.24469,1040.986 263.68593,1038.8583 L 266.3735,1043.4608 C 265.38802,1044.4462 263.87627,1045.2973 261.83822,1046.014 C 259.28501,1046.9546 256.44066,1047.4249 253.30519,1047.4249 C 248.7811,1047.4249 244.94012,1045.8908 241.78223,1042.8225 C 238.26599,1039.4406 236.50787,1034.8942 236.50788,1029.1831 C 236.50787,1023.248 238.31078,1018.4888 241.91661,1014.9053 C 245.14168,1011.7027 248.96027,1010.1014 253.37238,1010.1013 C 258.50113,1010.1014 262.52129,1011.5459 265.43285,1014.435 C 268.25476,1017.2122 269.66573,1020.8964 269.66577,1025.4877 C 269.66573,1026.8986 269.49776,1028.1976 269.16185,1029.3846 M 253.67473,1015.4765 C 250.83037,1015.4765 248.44515,1016.3947 246.51907,1018.2312 C 244.68256,1019.9782 243.64113,1022.1506 243.39477,1024.7486 L 263.31639,1024.7486 C 263.31636,1022.173 262.51009,1020.023 260.89757,1018.2984 C 259.12823,1016.4171 256.72062,1015.4765 253.67473,1015.4765 M 276.88861,1036.5739 L 276.88861,996.02517 L 283.27159,996.02517 L 283.27159,1035.4989 C 283.27158,1037.425 283.82029,1038.9479 284.91773,1040.0677 C 286.03753,1041.1652 287.4933,1041.7139 289.28503,1041.7139 L 289.28503,1047.4249 C 281.02074,1047.4249 276.88861,1043.8079 276.88861,1036.5739 M 326.9782,1029.3846 L 301.04315,1029.3846 C 301.04314,1033.5952 302.19655,1036.8314 304.50339,1039.0935 C 306.54145,1041.0644 309.16183,1042.0498 312.36453,1042.0498 C 316.01513,1042.0498 319.06104,1040.986 321.50227,1038.8583 L 324.18984,1043.4608 C 323.20437,1044.4462 321.69261,1045.2973 319.65457,1046.014 C 317.10135,1046.9546 314.25701,1047.4249 311.12153,1047.4249 C 306.59744,1047.4249 302.75646,1045.8908 299.59858,1042.8225 C 296.08234,1039.4406 294.32422,1034.8942 294.32422,1029.1831 C 294.32422,1023.248 296.12713,1018.4888 299.73296,1014.9053 C 302.95803,1011.7027 306.77661,1010.1014 311.18872,1010.1013 C 316.31748,1010.1014 320.33763,1011.5459 323.24919,1014.435 C 326.07111,1017.2122 327.48208,1020.8964 327.48212,1025.4877 C 327.48208,1026.8986 327.31411,1028.1976 326.9782,1029.3846 M 311.49107,1015.4765 C 308.64671,1015.4765 306.2615,1016.3947 304.33542,1018.2312 C 302.4989,1019.9782 301.45747,1022.1506 301.21112,1024.7486 L 321.13273,1024.7486 C 321.1327,1022.173 320.32643,1020.023 318.71392,1018.2984 C 316.94458,1016.4171 314.53696,1015.4765 311.49107,1015.4765 M 353.65232,1001.7363 C 352.3533,1001.2884 351.1439,1001.0644 350.0241,1001.0644 C 348.07559,1001.0644 346.46305,1001.8035 345.18647,1003.2816 C 343.93226,1004.7598 343.30516,1006.6299 343.30517,1008.8919 C 343.30516,1009.4967 343.36115,1010.1238 343.47315,1010.7732 L 350.79677,1010.7732 L 350.79677,1016.1484 L 343.47315,1016.1484 L 343.47315,1046.7531 L 337.09017,1046.7531 L 337.09017,1016.1484 L 331.84941,1016.1484 L 331.84941,1010.7732 L 337.09017,1010.7732 C 337.09016,1006.182 338.22118,1002.5762 340.48322,999.95574 C 342.74525,997.33541 345.73517,996.02522 349.45299,996.02517 C 351.31187,996.02522 353.30515,996.36117 355.43283,997.03301 L 353.65232,1001.7363 M 389.93452,1029.3846 L 363.99947,1029.3846 C 363.99946,1033.5952 365.15287,1036.8314 367.45971,1039.0935 C 369.49777,1041.0644 372.11815,1042.0498 375.32086,1042.0498 C 378.97145,1042.0498 382.01736,1040.986 384.45859,1038.8583 L 387.14616,1043.4608 C 386.16069,1044.4462 384.64893,1045.2973 382.61089,1046.014 C 380.05767,1046.9546 377.21333,1047.4249 374.07786,1047.4249 C 369.55377,1047.4249 365.71278,1045.8908 362.5549,1042.8225 C 359.03866,1039.4406 357.28054,1034.8942 357.28054,1029.1831 C 357.28054,1023.248 359.08345,1018.4888 362.68928,1014.9053 C 365.91435,1011.7027 369.73294,1010.1014 374.14504,1010.1013 C 379.2738,1010.1014 383.29395,1011.5459 386.20551,1014.435 C 389.02743,1017.2122 390.4384,1020.8964 390.43844,1025.4877 C 390.4384,1026.8986 390.27043,1028.1976 389.93452,1029.3846 M 374.4474,1015.4765 C 371.60304,1015.4765 369.21782,1016.3947 367.29174,1018.2312 C 365.45523,1019.9782 364.41379,1022.1506 364.16744,1024.7486 L 384.08905,1024.7486 C 384.08902,1022.173 383.28275,1020.023 381.67024,1018.2984 C 379.9009,1016.4171 377.49329,1015.4765 374.4474,1015.4765" id="text2389" style="font-size: 68.8018px; font-style: normal; font-variant: normal; font-weight: normal; font-stretch: normal; text-align: start; line-height: 125%; text-anchor: start; fill: rgb(0, 0, 0); fill-opacity: 1; stroke: none; stroke-width: 1px; stroke-linecap: butt; stroke-linejoin: miter; stroke-opacity: 1; font-family: Trebuchet MS;"/>
  </g>
</svg>