<svg width="35" height="35" viewBox="0 0 35 35" fill="none" xmlns="http://www.w3.org/2000/svg">
<path d="M18.1932 1.1161C21.0018 1.3125 23.5897 2.2233 25.7933 3.65733C25.6469 3.84946 25.4545 4.00453 25.2343 4.10575L24.1429 4.60702C21.994 5.59454 21.7862 8.5672 23.7767 9.84423L24.7876 10.4935L24.7895 10.4936C25.0267 10.6459 25.2153 10.8648 25.333 11.1209L25.8353 12.2123L26.0426 12.593C27.1877 14.3792 29.8753 14.4448 31.0725 12.5786L31.7217 11.5677L31.7219 11.5657C31.7952 11.4515 31.8842 11.3492 31.985 11.2601C32.8211 13.3984 33.209 15.7507 33.0382 18.1932C32.4218 27.008 24.7758 33.6545 15.961 33.0382C7.14628 32.4218 0.499717 24.7758 1.1161 15.961C1.73254 7.14557 9.37849 0.499717 18.1932 1.1161ZM27.5002 4.93674C28.9321 6.16807 30.1395 7.64618 31.061 9.29927C30.6064 9.58149 30.2177 9.96079 29.9267 10.4143L29.2773 11.4281C28.9107 11.9988 28.0568 11.939 27.7731 11.3229L27.2711 10.2286C26.983 9.60218 26.5212 9.07173 25.9409 8.69944L24.9271 8.04999C24.3565 7.68339 24.4163 6.82849 25.0324 6.54488L26.1267 6.04284C26.6703 5.79282 27.1417 5.41226 27.5002 4.93674Z" fill="#00402E"></path>
<path d="M16.7973 10.4382C20.0053 10.2418 23.4195 11.2328 23.7184 15.0738C23.9327 17.8266 22.2564 19.7382 19.7204 20.4258C19.1169 20.5894 18.3436 20.5745 17.7952 20.8281C17.6894 20.8972 18.0297 22.9726 18.0494 23.153C18.0689 23.3233 18.0903 23.4943 18.1038 23.6651C18.1202 23.8717 18.0904 24.0868 17.9526 24.2478C17.8669 24.348 17.7539 24.4086 17.6304 24.4479C17.2133 24.5811 16.1007 24.66 15.6233 24.6925C15.1224 24.7265 13.2255 24.846 12.8634 24.518C12.5366 24.2221 12.6568 23.018 12.6556 22.597C12.652 21.3274 12.698 20.0588 12.6933 18.7899C12.6899 17.8941 12.6463 16.9876 12.6054 16.0925C12.5442 14.7542 12.3489 13.4255 12.2845 12.087C12.273 11.8495 12.2261 11.34 12.3964 11.1534C12.8775 10.6262 15.9907 10.474 16.7973 10.4382ZM17.2845 14.2721C17.2933 15.2745 17.3292 16.2766 17.392 17.2771C17.8901 17.2647 18.3568 17.2922 18.7408 16.922C20.0737 15.8266 19.1724 13.9031 17.6198 14.1608L17.2845 14.2721Z" fill="#EBFA61"></path>
<path fill-rule="evenodd" clip-rule="evenodd" d="M29.8101 3.80151C29.5266 3.18469 28.673 3.125 28.3065 3.69637L27.657 4.70853C27.2845 5.28937 26.7533 5.75124 26.1264 6.03939L25.0337 6.54138C24.4169 6.82482 24.3572 7.67843 24.9285 8.04496L25.9407 8.69447C26.5216 9.06694 26.9834 9.59813 27.2716 10.2251L27.7736 11.3178C28.057 11.9346 28.9106 11.9943 29.2771 11.4229L29.9267 10.4108C30.2991 9.82991 30.8303 9.36804 31.4573 9.07989L32.55 8.5779C33.1668 8.29445 33.2265 7.44085 32.6551 7.07432L31.6429 6.4248C31.0621 6.05234 30.6002 5.52115 30.3121 4.89419L29.8101 3.80151Z" fill="#006D42"></path>
</svg>