<svg xmlns="http://www.w3.org/2000/svg" width="100" height="23.819" viewBox="0 0 100 23.819" fill="#006D42">
  <path transform="translate(0.288 0.375)" d="M 7.57 0.007 C 12.838 -0.129 18.376 1.664 18.646 7.885 C 18.839 12.343 15.983 15.336 11.788 16.304 C 10.79 16.534 9.524 16.466 8.611 16.845 C 8.433 16.951 8.872 20.322 8.894 20.615 C 8.916 20.891 8.942 21.168 8.954 21.445 C 8.969 21.779 8.908 22.125 8.673 22.377 C 8.527 22.534 8.338 22.626 8.134 22.682 C 7.442 22.874 5.615 22.939 4.831 22.964 C 4.008 22.991 0.893 23.077 0.318 22.527 C -0.2 22.03 0.066 20.092 0.088 19.412 C 0.154 17.361 0.302 15.315 0.367 13.265 C 0.413 11.818 0.393 10.351 0.378 8.903 C 0.354 6.738 0.11 4.581 0.081 2.416 C 0.076 2.032 0.028 1.206 0.318 0.914 C 1.136 0.09 6.246 0.019 7.57 0.007 Z M 8.149 6.227 C 8.106 7.847 8.107 9.467 8.153 11.087 C 8.97 11.095 9.733 11.166 10.384 10.589 C 12.63 8.895 11.264 5.738 8.705 6.066 L 8.149 6.227 Z"></path>
  <path transform="translate(16.261 0.723)" d="M 8.201 0.02 C 10.661 -0.056 13.278 0.107 15.751 0.079 C 15.869 0.077 16.184 0.281 16.299 0.354 C 16.662 1.001 16.805 2.396 16.95 3.189 C 17.23 4.688 17.529 6.184 17.845 7.676 C 18.477 10.631 19.282 13.573 20.007 16.504 C 20.311 17.732 20.958 19.935 21.071 21.143 C 21.031 21.221 20.989 21.298 20.944 21.373 C 20.734 21.713 20.465 21.854 20.084 21.942 C 18.785 22.241 13.871 22.714 12.826 22.045 C 12.236 21.667 12.199 19.772 12.044 19.07 C 11.99 18.732 11.96 18.485 11.936 18.145 C 11.324 18.066 9.915 18.022 9.291 18.149 C 9.122 18.187 8.867 18.394 8.824 18.567 C 8.533 19.72 8.655 20.821 8.071 21.928 C 7.984 21.989 7.891 22.041 7.794 22.084 C 7.435 22.245 7.049 22.313 6.66 22.349 C 5.679 22.441 1.323 22.418 0.504 22.1 C 0.336 22.035 0.16 21.935 0.085 21.762 C -0.089 21.358 0.042 20.814 0.148 20.404 C 0.516 18.983 1.025 17.578 1.468 16.177 C 2.251 13.703 3.009 11.22 3.741 8.73 C 4.199 7.129 4.637 5.522 5.056 3.909 C 5.351 2.757 5.625 1.423 6.065 0.332 C 6.508 -0.072 7.579 0.025 8.201 0.02 Z M 9.369 13.684 L 10.31 13.684 C 10.68 13.689 11.367 13.743 11.663 13.561 C 11.83 13.339 11.084 7.418 11.112 6.602 C 11.122 6.314 11.051 5.528 10.858 5.279 C 10.491 6.351 10.493 6.961 10.303 8.04 C 9.989 9.825 9.553 11.892 9.369 13.684 Z"></path>
  <path transform="translate(36.197 0.297)" d="M 8.283 0.037 C 9.974 -0.116 14.824 0.176 15.989 1.421 C 16.22 2.283 16.274 7.917 14.763 7.694 C 13.345 7.485 11.429 6.535 9.809 6.65 C 8.971 6.709 8.191 6.668 8.117 7.813 C 8.142 8.385 9.067 8.779 9.563 8.889 C 12.336 9.502 15.444 9.713 16.838 12.657 C 18.289 15.721 17.255 19.697 14.292 21.5 C 12.797 22.41 10.822 23.044 9.049 23.064 C 7.302 23.269 4.002 22.807 2.406 22.119 C 2.145 22.006 1.907 21.877 1.8 21.6 C 1.457 20.713 1.387 15.999 1.756 15.199 C 1.892 14.903 2.158 14.807 2.443 14.701 C 4.123 15.098 7.829 16.798 9.284 15.237 C 10.565 13.862 6.952 13.421 6.284 13.276 C 5.727 13.156 5.176 13.007 4.635 12.829 C 3.636 12.498 2.741 12.069 1.921 11.396 C -0.531 9.384 -0.575 5.205 1.443 2.879 C 3.122 0.944 5.797 0.223 8.283 0.037 Z"></path>
  <path transform="translate(54.38 0.703)" d="M 3.182 0.039 C 3.613 -0.068 6.478 0.07 7.078 0.155 C 7.222 0.175 7.502 0.309 7.646 0.381 C 8.202 1.181 7.99 1.767 7.962 2.666 C 7.939 3.392 7.911 4.121 7.883 4.847 C 7.838 6.385 7.823 7.923 7.837 9.462 C 7.836 11.768 7.817 14.085 7.944 16.387 C 8.014 17.644 8.195 18.913 8.201 20.184 C 8.203 20.594 8.252 21.489 7.948 21.776 C 7.352 22.337 5.762 22.262 4.968 22.281 C 4.087 22.311 1.083 22.341 0.322 21.889 C -0.144 21.612 0.04 19.357 0.061 18.72 L 0.17 15.275 C 0.274 11.652 0.28 8.112 0.127 4.482 C 0.093 3.689 -0.198 1.055 0.235 0.475 C 0.546 0.058 2.557 0.064 3.182 0.039 Z"></path>
  <path transform="translate(63.254 0.766)" d="M 0.844 0.013 C 1.235 -0.02 2.079 0.021 2.526 0.022 L 6.091 0.017 L 11.268 0.012 C 12.34 0.007 13.422 -0.009 14.493 0.007 C 15.15 0.017 15.383 0.079 15.817 0.539 C 16.033 1.618 15.972 5.456 15.781 6.621 C 15.728 6.946 15.325 7.197 15.043 7.354 C 14.277 7.35 13.509 7.331 12.741 7.349 C 11.766 7.373 11.699 7.681 11.683 8.561 C 11.632 11.447 11.843 14.327 11.866 17.212 C 11.872 17.873 11.865 18.547 11.903 19.206 L 11.97 20.401 C 11.989 20.825 12.012 21.531 11.692 21.856 C 11.336 22.219 10.123 22.174 9.633 22.188 C 8.809 22.212 4.474 22.288 3.973 21.804 C 3.776 21.613 3.73 21.365 3.708 21.102 C 3.644 20.297 3.733 19.444 3.742 18.633 C 3.772 16.227 4.001 13.84 4.097 11.437 C 4.145 10.242 4.13 9.036 4.102 7.84 C 3.071 6.756 1.625 7.811 0.472 7.202 C 0.283 7.102 0.219 7.023 0.158 6.818 C 0.09 6.591 0.057 6.357 0.042 6.121 C 0 5.418 -0.06 0.815 0.144 0.463 C 0.297 0.2 0.565 0.091 0.844 0.013 Z"></path>
  <path transform="translate(78.955 0.385)" d="M 9.548 0.053 L 9.571 0.051 C 15.796 -0.526 20.397 3.89 20.921 9.949 C 21.506 16.72 18.819 22.185 11.478 22.852 C 8.734 23.128 5.574 22.459 3.517 20.552 C 1.238 18.439 0.166 15.521 0.017 12.467 C -0.138 9.291 0.761 5.437 2.952 3.052 C 4.663 1.214 7.037 0.134 9.548 0.053 Z M 11.019 16.001 C 12.038 15.615 12.68 15.107 13.144 14.067 C 13.977 12.203 13.837 8.718 11.734 7.703 C 11.406 7.544 10.61 7.393 10.249 7.488 C 9.223 7.779 8.777 8.07 8.23 9.022 C 6.94 11.271 7.418 16.486 11.019 16.001 Z"></path>
</svg>