<svg xmlns="http://www.w3.org/2000/svg" width="950" height="296.2582" class="w-16 lg:w-32" viewBox="0 0 950 296.2581">
  <path d="M381.4691 289.3961h120.2116c7.6645 0 10.085-6.0542 6.051-13.3194-5.2442-9.2832-6.4543-16.5485-1.2102-45.2056l3.2272-19.7773h75.0314c6.8577 0 11.295-3.6327 12.5052-10.4941l9.6814-53.6817c1.2101-7.6688-2.8237-12.5122-10.8915-12.5122h-72.611l8.0678-46.82h56.0718c28.2375 0 35.4986 4.4398 43.5666 12.1087 6.4543 6.0542 13.312 4.4398 14.9256-3.229l13.312-77.0917c1.6136-7.6688-2.8238-12.5122-10.8916-12.5122H412.9341c-7.6645 0-10.085 6.0543-6.051 13.3194 5.2442 9.2833 6.4543 16.5484 1.2102 45.2057L370.9809 276.884c-1.6136 7.6689 2.4204 12.5122 10.4882 12.5122zm-375.5598 0h138.7676c7.6646 0 10.085-6.0542 6.051-13.3194-5.2442-9.2832-6.4543-16.5485-1.2102-45.2056l13.7155-79.1097 31.4648 91.2184c11.6983 34.7115 27.4307 46.4165 62.1226 46.4165h88.3434c10.085 0 10.8915-10.0906 3.6305-14.934s-13.7155-12.9158-20.5732-29.868L279.4106 124.719l77.4517-80.3207c10.8916-10.8978 22.1866-18.163 29.0444-22.199 8.0678-5.2471 6.0509-15.3378-2.4205-15.3378h-135.137c-7.6646 0-10.085 6.0543-6.051 13.3194 5.2441 9.2833 4.8408 16.5484-19.7664 42.7839l-53.6514 56.9106 9.6815-54.4888c5.2441-28.6571 8.8746-35.9222 17.346-45.2057 6.4542-7.2651 6.0509-13.3194-1.6137-13.3194H55.5269c-7.6645 0-9.6815 6.0543-5.6474 13.3194 5.244 9.2833 6.4542 16.5484 1.21 45.2057L22.0452 230.871c-5.2441 28.657-8.8746 35.9222-17.346 45.2056-6.4542 7.2652-6.4542 13.3194 1.2102 13.3194m803.5612 6.8617c25.4138 0 62.5262-5.6508 81.4856-14.5303 13.7154-6.458 15.7323-8.476 17.346-15.7412l17.346-98.4836c.8067-4.8433-1.6137-7.6688-6.4543-7.6688-12.5052 0-40.3394 35.5187-89.1501 35.5187-36.3056 0-57.6854-22.6028-52.4413-51.6636 4.8409-27.8498 30.658-49.2418 64.1396-49.2418 39.1293 0 75.0314 34.7113 85.1163 34.7113 3.6306 0 6.051-2.018 6.4543-4.8433l16.5391-92.0257c.8068-5.247-1.6136-7.2651-8.8746-11.3013C923.6311 12.1085 891.7631 0 840.5319 0c-98.428 0-176.2831 56.9106-192.419 141.6711-17.7493 91.622 49.6175 154.587 161.3576 154.587z" style="fill:#f5002b;stroke-width:1"/>
</svg>
